<svg width="24" height="24" viewBox="0 0 24 24" fill="none" xmlns="http://www.w3.org/2000/svg">
<path d="M15.891 3.04799C16.562 2.37686 17.4721 1.99977 18.4211 1.99968C19.3702 1.99959 20.2804 2.3765 20.9515 3.04749C21.6226 3.71849 21.9997 4.62861 21.9998 5.57764C21.9999 6.52667 21.623 7.43686 20.952 8.10799L20.06 9.00099L15 3.93999L15.891 3.04799ZM13.94 5.00099L3.93999 15C3.53378 15.4062 3.2482 15.9172 3.11499 16.476L2.01999 21.078C1.99034 21.2026 1.99312 21.3328 2.02806 21.4561C2.06301 21.5794 2.12895 21.6916 2.2196 21.7822C2.31025 21.8727 2.42258 21.9385 2.54589 21.9733C2.6692 22.0081 2.79937 22.0108 2.92399 21.981L7.52499 20.885C8.08418 20.752 8.59548 20.4664 9.00199 20.06L19 10.061L13.94 5.00099Z" fill="black"/>
</svg>
