<svg width="24" height="24" viewBox="0 0 24 24" fill="none" xmlns="http://www.w3.org/2000/svg">
<path d="M5.82403 3.63201L12 9.80801L18.144 3.66401C18.2797 3.51956 18.4432 3.404 18.6247 3.32427C18.8061 3.24454 19.0018 3.20228 19.2 3.20001C19.6244 3.20001 20.0313 3.36858 20.3314 3.66864C20.6315 3.9687 20.8 4.37567 20.8 4.80001C20.8038 4.99618 20.7674 5.19103 20.6931 5.37262C20.6188 5.55421 20.5082 5.71871 20.368 5.85601L14.144 12L20.368 18.224C20.6317 18.482 20.7864 18.8314 20.8 19.2C20.8 19.6244 20.6315 20.0313 20.3314 20.3314C20.0313 20.6314 19.6244 20.8 19.2 20.8C18.9961 20.8085 18.7927 20.7744 18.6026 20.7001C18.4126 20.6257 18.24 20.5126 18.096 20.368L12 14.192L5.84003 20.352C5.70484 20.4916 5.54333 20.6031 5.36483 20.68C5.18633 20.7569 4.99437 20.7977 4.80003 20.8C4.37568 20.8 3.96872 20.6314 3.66866 20.3314C3.3686 20.0313 3.20003 19.6244 3.20003 19.2C3.1963 19.0038 3.23269 18.809 3.30698 18.6274C3.38127 18.4458 3.49188 18.2813 3.63203 18.144L9.85603 12L3.63203 5.77601C3.36832 5.51803 3.21369 5.16867 3.20003 4.80001C3.20003 4.37567 3.3686 3.9687 3.66866 3.66864C3.96872 3.36858 4.37568 3.20001 4.80003 3.20001C5.18403 3.20481 5.55203 3.36001 5.82403 3.63201Z" fill="black"/>
</svg>
