<svg width="24" height="24" viewBox="0 0 24 24" fill="none" xmlns="http://www.w3.org/2000/svg">
<path fill-rule="evenodd" clip-rule="evenodd" d="M9.47639 6.84004C8.81519 7.33564 8.51639 7.92964 8.51639 8.48404C8.51639 9.03964 8.81519 9.63364 9.47639 10.1304C10.1388 10.6272 11.1084 10.9704 12.2304 10.9704C12.5487 10.9704 12.8539 11.0969 13.0789 11.3219C13.304 11.547 13.4304 11.8522 13.4304 12.1704C13.4304 12.4887 13.304 12.7939 13.0789 13.019C12.8539 13.244 12.5487 13.3704 12.2304 13.3704C10.6392 13.3704 9.15239 12.888 8.03639 12.0504C6.92039 11.2128 6.11639 9.96484 6.11639 8.48524C6.11639 7.00444 6.92039 5.75644 8.03639 4.91884C9.15239 4.08244 10.6404 3.60004 12.2304 3.60004C14.694 3.60004 17.0232 4.77964 17.9496 6.74404C18.0168 6.88665 18.0553 7.04111 18.0628 7.19859C18.0703 7.35607 18.0467 7.51349 17.9934 7.66186C17.9401 7.81023 17.8581 7.94664 17.752 8.06331C17.646 8.17998 17.518 8.27463 17.3754 8.34184C17.2328 8.40905 17.0783 8.44751 16.9208 8.45503C16.7634 8.46254 16.6059 8.43897 16.4576 8.38565C16.3092 8.33233 16.1728 8.25031 16.0561 8.14427C15.9394 8.03823 15.8448 7.91025 15.7776 7.76764C15.3576 6.87124 14.0472 6.00004 12.2316 6.00004C11.1096 6.00004 10.1388 6.34324 9.47639 6.84004Z" fill="black"/>
<path fill-rule="evenodd" clip-rule="evenodd" d="M14.5884 17.4996C15.2496 17.004 15.5472 16.41 15.5472 15.8556C15.5472 15.3 15.2496 14.7048 14.5872 14.2092C13.926 13.7124 12.9552 13.3692 11.8344 13.3692C11.5162 13.3692 11.2109 13.2428 10.9859 13.0177C10.7609 12.7927 10.6344 12.4875 10.6344 12.1692C10.6344 11.851 10.7609 11.5457 10.9859 11.3207C11.2109 11.0956 11.5162 10.9692 11.8344 10.9692C13.4256 10.9692 14.9124 11.4516 16.0284 12.2892C17.1444 13.1268 17.9472 14.3748 17.9472 15.8544C17.9472 17.334 17.1444 18.5832 16.0272 19.4196C14.9112 20.2572 13.4256 20.7396 11.8344 20.7396C9.37082 20.7396 7.04042 19.56 6.11522 17.5944C5.97949 17.3065 5.96366 16.9765 6.07123 16.677C6.1788 16.3775 6.40096 16.1329 6.68882 15.9972C6.97669 15.8615 7.30669 15.8456 7.60622 15.9532C7.90575 16.0608 8.15029 16.2829 8.28602 16.5708C8.70842 17.4684 10.0188 18.3396 11.8344 18.3396C12.9564 18.3396 13.926 17.9964 14.5884 17.4996ZM12 1.20001C12.3183 1.20001 12.6235 1.32644 12.8486 1.55148C13.0736 1.77653 13.2 2.08175 13.2 2.40001V3.60001C13.2 3.91827 13.0736 4.2235 12.8486 4.44854C12.6235 4.67358 12.3183 4.80001 12 4.80001C11.6818 4.80001 11.3765 4.67358 11.1515 4.44854C10.9265 4.2235 10.8 3.91827 10.8 3.60001V2.40001C10.8 2.08175 10.9265 1.77653 11.1515 1.55148C11.3765 1.32644 11.6818 1.20001 12 1.20001Z" fill="black"/>
<path fill-rule="evenodd" clip-rule="evenodd" d="M12 19.2C12.3183 19.2 12.6235 19.3264 12.8486 19.5515C13.0736 19.7765 13.2 20.0818 13.2 20.4V21.6C13.2 21.9183 13.0736 22.2235 12.8486 22.4485C12.6235 22.6736 12.3183 22.8 12 22.8C11.6818 22.8 11.3766 22.6736 11.1515 22.4485C10.9265 22.2235 10.8 21.9183 10.8 21.6V20.4C10.8 20.0818 10.9265 19.7765 11.1515 19.5515C11.3766 19.3264 11.6818 19.2 12 19.2Z" fill="black"/>
</svg>
